{"title":"Glassland.2014.WEBRiP.XViD.AC3.5.1.ReLeNTLesS","uid":12478907,"size":1194363601,"categoryP":"video","categoryS":"movies","magnet":"?xt=urn:btih:146a6542df684ba24c351cb95b94707129f18ce5&amp;dn=Glassland.2014.WEBRiP.XViD.AC3.5.1.ReLeNTLesS&amp;tr=udp%3A%2F%2Ftracker.openbittorrent.com%3A80&amp;tr=udp%3A%2F%2Fopen.demonii.com%3A1337&amp;tr=udp%3A%2F%2Ftracker.coppersurfer.tk%3A6969&amp;tr=udp%3A%2F%2Fexodus.desync.com%3A6969","seeders":25,"leechers":7,"uploader":"TvTeam","files":4,"time":1443017691,"description":"------------------------------------------------------------------------\n\n &lt;a href=&quot; https://www.torrenting.com&quot; rel=&quot;nofollow&quot; target=&quot;_NEW&quot;&gt; https://www.torrenting.com&lt;/a&gt;\n\nSign up is OPEN - for time being. Come and have fun.\n\n------------------------------------------------------------------------P0STER\n[img]http://i.imgur.com/VP06zNg.png[/img]\n\niMDB: http://www.imdb.com/title/tt3407428/\n\nGeneral\nComplete name               : Glassland.2014.WEBRiP.XViD.AC3.5.1.ReLeNTLesS.avi\nFormat                      : AVI\nFormat/Info                 : Audio Video Interleave\nFile size                   : 1.10 GiB\nDuration                    : 1h 32mn\nOverall bit rate            : 1 702 Kbps\n\nVideo\nID                          : 0\nFormat                      : MPEG-4 Visual\nFormat profile              : Advanced Simple@L5\nFormat settings, BVOP       : 1\nFormat settings, QPel       : No\nFormat settings, GMC        : No warppoints\nFormat settings, Matrix     : Default (H.263)\nMuxing mode                 : Packed bitstream\nCodec ID                    : XVID\nCodec ID/Hint               : XviD\nDuration                    : 1h 32mn\nBit rate                    : 1 503 Kbps\nWidth                       : 720 pixels\nHeight                      : 304 pixels\nDisplay aspect ratio        : 2.35:1\nFrame rate                  : 24.000 fps\nColor space                 : YUV\nChroma subsampling          : 4:2:0\nBit depth                   : 8 bits\nScan type                   : Progressive\nCompression mode            : Lossy\nBits/(Pixel*Frame)          : 0.286\nStream size                 : 997 MiB (88%)\nWriting library             : XviD 1.2.1 (UTC 2008-12-04)\n\nAudio\nID                          : 1\nFormat                      : AC-3\nFormat/Info                 : Audio Coding 3\nMode extension              : CM (complete main)\nFormat settings, Endianness : Big\nCodec ID                    : 2000\nDuration                    : 1h 32mn\nBit rate mode               : Constant\nBit rate                    : 192 Kbps\nChannel(s)                  : 6 channels\nChannel positions           : Front: L C R, Side: L R, LFE\nSampling rate               : 48.0 KHz\nCompression mode            : Lossy\nStream size                 : 127 MiB (11%)\nAlignment                   : Aligned on interleaves\nInterleave, duration        : 64 ms (1.54 video frames)\nInterleave, preload duratio : 192 ms\nTitle                       : Glassland.2014.AUDIO.AC3.5.1.ReLeNTLesS.English_new\nSample Included             : Yes\nSource                      : M0RPH/Glassland 720p WEB-DL ReLeNTLesS cheers brother :bow: \n\nPL0T\nSet in Dublin Glassland tells the story of a young taxi driver (Reynor) who gets tangled up in the world of human trafficking while trying to save his mother (Collette) from addiction.\n\nCAST\nDirector: Gerard Barrett\nWriter: Gerard Barrett\nStars: Will Poulter, Toni Collette, Jack Reynor\n\nN0TE\nSeemed to be a touch dark in places but I think that was Intentional on the directors part, anywho brightend, sharpend and done audio... Muxed.\n\nSCREENS\n[img]http://i.imgur.com/buxEotw.png[/img]\n[img]http://i.imgur.com/6kXnL47.png[/img]\n[img]http://i.imgur.com/EcuVvbp.png[/img]\n[img]http://i.imgur.com/xGHZod3.png[/img]\n[img]http://i.imgur.com/vjtImkB.png[/img]\n[img]http://i.imgur.com/38CPAIs.png[/img]\n\nTRAiLER\n\nGREETZ\n\n\nHIVE-CM8, Blackjesus, M0RPH, M00SE, MiLLENiUM,\n\nMANiX, TiTAN, Anonymous, TuX, \n\nACAB, KingStoner, FooKas, 4PlayHD, \n\nGodFather, Cld.... \n\nKeep up the good work guyz","torrent":{"xt":"urn:btih:146a6542df684ba24c351cb95b94707129f18ce5","amp;dn":"Glassland.2014.WEBRiP.XViD.AC3.5.1.ReLeNTLesS","amp;tr":["udp%3A%2F%2Ftracker.openbittorrent.com%3A80","udp%3A%2F%2Fopen.demonii.com%3A1337","udp%3A%2F%2Ftracker.coppersurfer.tk%3A6969","udp%3A%2F%2Fexodus.desync.com%3A6969"],"infoHash":"146a6542df684ba24c351cb95b94707129f18ce5","infoHashBuffer":{"type":"Buffer","data":[20,106,101,66,223,104,75,162,76,53,28,185,91,148,112,113,41,241,140,229]},"announce":[],"urlList":[]}}